<svg xmlns="http://www.w3.org/2000/svg" xmlns:xlink="http://www.w3.org/1999/xlink" width="500" zoomAndPan="magnify" viewBox="0 0 375 374.999991" height="500" preserveAspectRatio="xMidYMid meet" version="1.0"><defs><g/><clipPath id="544c2bbf43"><path d="M 66 145.15625 L 110 145.15625 L 110 177 L 66 177 Z M 66 145.15625 " clip-rule="nonzero"/></clipPath><clipPath id="6b0618c0fd"><path d="M 99 166 L 130.5 166 L 130.5 209 L 99 209 Z M 99 166 " clip-rule="nonzero"/></clipPath><clipPath id="7576d70138"><path d="M 66 198 L 110 198 L 110 229.90625 L 66 229.90625 Z M 66 198 " clip-rule="nonzero"/></clipPath><clipPath id="f6a650fe93"><path d="M 45.75 166 L 77 166 L 77 209 L 45.75 209 Z M 45.75 166 " clip-rule="nonzero"/></clipPath></defs><rect x="-37.5" width="450" fill="#ffffff" y="-37.499999" height="449.999989" fill-opacity="1"/><rect x="-37.5" width="450" fill="#ffffff" y="-37.499999" height="449.999989" fill-opacity="1"/><g clip-path="url(#544c2bbf43)"><path fill="#ff3131" d="M 109.398438 149.921875 C 105.597656 149.921875 102.011719 150.691406 98.742188 152.089844 C 95.355469 153.527344 92.324219 155.652344 89.804688 158.292969 C 87.539062 160.65625 86.042969 163.667969 84.625 166.542969 C 82.792969 170.207031 81.039062 173.710938 78.066406 176.113281 L 78.066406 168.691406 C 78.894531 167.371094 79.621094 165.914062 80.351562 164.417969 C 81.628906 161.878906 82.949219 159.238281 84.859375 156.777344 C 82.636719 154.808594 80.09375 153.191406 77.316406 152.011719 C 74.089844 150.671875 70.5625 149.921875 66.839844 149.921875 L 66.839844 145.15625 C 71.191406 145.15625 75.367188 146.042969 79.148438 147.640625 C 82.457031 149.015625 85.492188 150.949219 88.109375 153.332031 C 90.6875 151.007812 93.644531 149.097656 96.894531 147.71875 C 100.734375 146.0625 104.964844 145.15625 109.398438 145.15625 Z M 109.398438 149.921875 " fill-opacity="1" fill-rule="nonzero"/></g><path fill="#ff3131" d="M 66.839844 154.964844 C 70.207031 154.964844 73.4375 155.753906 76.3125 157.132812 C 79.308594 158.550781 81.925781 160.636719 83.972656 163.175781 L 80.273438 166.148438 C 78.65625 164.140625 76.609375 162.507812 74.265625 161.40625 C 72.039062 160.320312 69.519531 159.730469 66.839844 159.730469 Z M 66.839844 154.964844 " fill-opacity="1" fill-rule="nonzero"/><path fill="#ff3131" d="M 109.398438 158.570312 C 107.527344 158.941406 105.734375 159.492188 104.042969 160.222656 C 100.652344 161.679688 97.621094 163.808594 95.101562 166.445312 C 92.835938 168.808594 91.359375 171.800781 89.921875 174.695312 C 89.449219 175.621094 88.976562 176.546875 88.503906 177.453125 L 82.949219 177.453125 C 83.953125 175.976562 84.800781 174.304688 85.667969 172.570312 C 87.242188 169.398438 88.898438 166.070312 91.675781 163.15625 C 94.628906 160.066406 98.191406 157.5625 102.191406 155.871094 C 104.472656 154.886719 106.875 154.175781 109.398438 153.742188 Z M 109.398438 158.570312 " fill-opacity="1" fill-rule="nonzero"/><path fill="#ff3131" d="M 109.398438 168.355469 L 109.339844 168.375 C 105.953125 169.832031 102.917969 171.960938 100.417969 174.578125 C 99.570312 175.464844 98.824219 176.429688 98.152344 177.453125 L 92.640625 177.453125 C 93.800781 175.328125 95.140625 173.238281 96.972656 171.308594 C 99.925781 168.21875 103.488281 165.71875 107.488281 164.003906 C 108.117188 163.746094 108.746094 163.492188 109.398438 163.253906 Z M 109.398438 168.355469 " fill-opacity="1" fill-rule="nonzero"/><path fill="#ffffff" d="M 84.859375 156.777344 C 84.074219 156.085938 83.246094 155.417969 82.378906 154.808594 L 85.390625 151.125 C 86.335938 151.8125 87.242188 152.542969 88.109375 153.332031 C 86.238281 154.886719 84.859375 156.777344 84.859375 156.777344 Z M 84.859375 156.777344 " fill-opacity="1" fill-rule="nonzero"/><path fill="#ffffff" d="M 79.78125 165.578125 C 79.976562 165.183594 80.171875 164.8125 80.351562 164.417969 C 80.902344 163.335938 81.453125 162.210938 82.0625 161.109375 C 81.511719 162.390625 79.78125 165.578125 79.78125 165.578125 Z M 79.78125 165.578125 " fill-opacity="1" fill-rule="nonzero"/><path fill="#ffffff" d="M 79.640625 159.082031 C 80.507812 159.710938 81.316406 160.378906 82.0625 161.109375 C 81.511719 162.390625 79.78125 165.578125 79.78125 165.578125 C 79.03125 164.710938 78.203125 163.945312 77.296875 163.253906 C 77.296875 163.195312 77.296875 163.15625 77.296875 163.15625 Z M 79.640625 159.082031 " fill-opacity="1" fill-rule="nonzero"/><g clip-path="url(#6b0618c0fd)"><path fill="#ff3131" d="M 125.722656 208.804688 C 125.722656 205.003906 124.953125 201.421875 123.558594 198.152344 C 122.097656 194.765625 119.972656 191.730469 117.355469 189.210938 C 114.972656 186.945312 111.976562 185.449219 109.101562 184.03125 C 105.417969 182.199219 101.933594 180.449219 99.511719 177.472656 L 106.9375 177.472656 C 108.273438 178.300781 109.710938 179.03125 111.210938 179.757812 C 113.769531 181.039062 116.410156 182.359375 118.851562 184.269531 C 120.839844 182.042969 122.453125 179.503906 123.617188 176.726562 C 124.976562 173.496094 125.722656 169.972656 125.722656 166.25 L 130.488281 166.25 C 130.488281 170.601562 129.601562 174.777344 128.007812 178.558594 C 126.609375 181.867188 124.679688 184.898438 122.316406 187.515625 C 124.621094 190.097656 126.53125 193.050781 127.929688 196.300781 C 129.5625 200.140625 130.488281 204.375 130.488281 208.804688 Z M 125.722656 208.804688 " fill-opacity="1" fill-rule="nonzero"/></g><path fill="#ff3131" d="M 120.660156 166.25 C 120.660156 169.617188 119.894531 172.847656 118.515625 175.722656 C 117.078125 178.714844 115.011719 181.332031 112.46875 183.382812 L 109.496094 179.679688 C 111.484375 178.066406 113.121094 176.015625 114.242188 173.671875 C 115.304688 171.449219 115.914062 168.925781 115.914062 166.25 Z M 120.660156 166.25 " fill-opacity="1" fill-rule="nonzero"/><path fill="#ff3131" d="M 117.058594 208.804688 C 116.683594 206.933594 116.132812 205.140625 115.402344 203.449219 C 113.964844 200.0625 111.839844 197.027344 109.199219 194.507812 C 106.816406 192.242188 103.824219 190.765625 100.949219 189.328125 C 100.003906 188.855469 99.078125 188.382812 98.171875 187.910156 L 98.171875 182.359375 C 99.667969 183.363281 101.34375 184.207031 103.054688 185.074219 C 106.246094 186.652344 109.554688 188.304688 112.46875 191.082031 C 115.5625 194.035156 118.0625 197.601562 119.777344 201.597656 C 120.761719 203.882812 121.46875 206.285156 121.882812 208.804688 Z M 117.058594 208.804688 " fill-opacity="1" fill-rule="nonzero"/><path fill="#ff3131" d="M 107.289062 208.804688 L 107.269531 208.746094 C 105.8125 205.359375 103.6875 202.328125 101.046875 199.804688 C 100.160156 198.976562 99.195312 198.230469 98.171875 197.5625 L 98.171875 192.046875 C 100.300781 193.207031 102.40625 194.546875 104.316406 196.378906 C 107.429688 199.332031 109.929688 202.898438 111.621094 206.894531 C 111.898438 207.523438 112.15625 208.15625 112.371094 208.804688 Z M 107.289062 208.804688 " fill-opacity="1" fill-rule="nonzero"/><path fill="#ffffff" d="M 118.851562 184.269531 C 119.558594 183.480469 120.210938 182.652344 120.820312 181.785156 L 124.503906 184.800781 C 123.8125 185.746094 123.085938 186.652344 122.316406 187.515625 C 120.742188 185.644531 118.851562 184.269531 118.851562 184.269531 Z M 118.851562 184.269531 " fill-opacity="1" fill-rule="nonzero"/><path fill="#ffffff" d="M 110.066406 179.1875 C 110.441406 179.382812 110.835938 179.582031 111.210938 179.757812 C 112.3125 180.308594 113.414062 180.859375 114.539062 181.472656 C 113.257812 180.921875 110.066406 179.1875 110.066406 179.1875 Z M 110.066406 179.1875 " fill-opacity="1" fill-rule="nonzero"/><path fill="#ffffff" d="M 116.546875 179.050781 C 115.9375 179.914062 115.265625 180.722656 114.539062 181.472656 C 113.257812 180.921875 110.066406 179.1875 110.066406 179.1875 C 110.914062 178.4375 111.703125 177.613281 112.390625 176.707031 C 112.449219 176.707031 112.488281 176.707031 112.488281 176.707031 Z M 116.546875 179.050781 " fill-opacity="1" fill-rule="nonzero"/><g clip-path="url(#7576d70138)"><path fill="#ff3131" d="M 66.839844 225.128906 C 70.621094 225.128906 74.226562 224.363281 77.496094 222.964844 C 80.882812 221.507812 83.914062 219.378906 86.414062 216.761719 C 88.679688 214.378906 90.175781 211.386719 91.613281 208.511719 C 93.445312 204.828125 95.179688 201.339844 98.171875 198.917969 L 98.171875 206.34375 C 97.34375 207.683594 96.617188 209.121094 95.867188 210.617188 C 94.589844 213.175781 93.269531 215.816406 91.378906 218.257812 C 93.585938 220.246094 96.125 221.863281 98.921875 223.023438 C 102.132812 224.382812 105.675781 225.128906 109.398438 225.128906 L 109.398438 229.894531 C 105.027344 229.894531 100.871094 229.011719 97.070312 227.414062 C 93.78125 226.015625 90.75 224.085938 88.109375 221.722656 C 85.53125 224.027344 82.574219 225.9375 79.347656 227.335938 C 75.507812 228.972656 71.273438 229.894531 66.839844 229.894531 Z M 66.839844 225.128906 " fill-opacity="1" fill-rule="nonzero"/></g><path fill="#ff3131" d="M 109.398438 220.070312 C 106.011719 220.070312 102.800781 219.300781 99.90625 217.921875 C 96.933594 216.484375 94.3125 214.417969 92.265625 211.878906 L 95.96875 208.902344 C 97.582031 210.894531 99.628906 212.527344 101.953125 213.648438 C 104.199219 214.714844 106.71875 215.324219 109.398438 215.324219 Z M 109.398438 220.070312 " fill-opacity="1" fill-rule="nonzero"/><path fill="#ff3131" d="M 66.839844 216.464844 C 68.691406 216.089844 70.484375 215.539062 72.179688 214.8125 C 75.585938 213.375 78.617188 211.246094 81.117188 208.609375 C 83.382812 206.226562 84.878906 203.230469 86.316406 200.355469 C 86.789062 199.410156 87.242188 198.484375 87.714844 197.582031 L 93.269531 197.582031 C 92.265625 199.078125 91.4375 200.75 90.570312 202.464844 C 88.976562 205.65625 87.320312 208.960938 84.566406 211.878906 C 81.609375 214.96875 78.027344 217.46875 74.046875 219.183594 C 71.765625 220.167969 69.34375 220.878906 66.839844 221.289062 Z M 66.839844 216.464844 " fill-opacity="1" fill-rule="nonzero"/><path fill="#ff3131" d="M 66.839844 206.699219 L 66.878906 206.679688 C 70.289062 205.222656 73.320312 203.09375 75.820312 200.457031 C 76.667969 199.570312 77.398438 198.605469 78.066406 197.582031 L 83.601562 197.582031 C 82.4375 199.707031 81.097656 201.8125 79.265625 203.722656 C 76.3125 206.835938 72.730469 209.335938 68.75 211.03125 C 68.121094 211.304688 67.492188 211.5625 66.839844 211.777344 Z M 66.839844 206.699219 " fill-opacity="1" fill-rule="nonzero"/><path fill="#ffffff" d="M 91.378906 218.257812 C 92.167969 218.96875 92.992188 219.617188 93.859375 220.226562 L 90.828125 223.910156 C 89.882812 223.21875 88.976562 222.492188 88.109375 221.722656 C 90 220.148438 91.378906 218.257812 91.378906 218.257812 Z M 91.378906 218.257812 " fill-opacity="1" fill-rule="nonzero"/><path fill="#ffffff" d="M 96.441406 209.476562 C 96.242188 209.847656 96.066406 210.242188 95.867188 210.617188 C 95.316406 211.71875 94.765625 212.824219 94.15625 213.945312 C 94.707031 212.664062 96.441406 209.476562 96.441406 209.476562 Z M 96.441406 209.476562 " fill-opacity="1" fill-rule="nonzero"/><path fill="#ffffff" d="M 96.578125 215.953125 C 95.730469 215.34375 94.921875 214.671875 94.15625 213.945312 C 94.707031 212.664062 96.441406 209.476562 96.441406 209.476562 C 97.1875 210.320312 98.035156 211.109375 98.921875 211.796875 C 98.921875 211.859375 98.921875 211.898438 98.921875 211.898438 Z M 96.578125 215.953125 " fill-opacity="1" fill-rule="nonzero"/><g clip-path="url(#f6a650fe93)"><path fill="#ff3131" d="M 50.515625 166.25 C 50.515625 170.03125 51.285156 173.632812 52.683594 176.902344 C 54.121094 180.289062 56.246094 183.324219 58.886719 185.824219 C 61.25 188.089844 64.261719 189.585938 67.136719 191.023438 C 70.800781 192.855469 74.304688 194.585938 76.707031 197.582031 L 69.28125 197.582031 C 67.964844 196.753906 66.507812 196.023438 65.007812 195.277344 C 62.46875 193.996094 59.832031 192.675781 57.367188 190.785156 C 55.398438 192.992188 53.785156 195.53125 52.601562 198.328125 C 51.265625 201.539062 50.515625 205.082031 50.515625 208.804688 L 45.75 208.804688 C 45.75 204.433594 46.636719 200.277344 48.230469 196.476562 C 49.609375 193.1875 51.539062 190.15625 53.921875 187.515625 C 51.597656 184.9375 49.6875 181.984375 48.308594 178.753906 C 46.65625 174.914062 45.75 170.679688 45.75 166.25 Z M 50.515625 166.25 " fill-opacity="1" fill-rule="nonzero"/></g><path fill="#ff3131" d="M 55.558594 208.804688 C 55.558594 205.417969 56.34375 202.207031 57.722656 199.3125 C 59.140625 196.339844 61.230469 193.71875 63.769531 191.671875 L 66.742188 195.375 C 64.734375 196.988281 63.097656 199.039062 61.996094 201.359375 C 60.914062 203.605469 60.324219 206.128906 60.324219 208.804688 Z M 55.558594 208.804688 " fill-opacity="1" fill-rule="nonzero"/><path fill="#ff3131" d="M 59.160156 166.25 C 59.535156 168.101562 60.085938 169.890625 60.816406 171.585938 C 62.273438 174.992188 64.398438 178.023438 67.039062 180.527344 C 69.402344 182.789062 72.394531 184.289062 75.289062 185.726562 C 76.214844 186.199219 77.140625 186.652344 78.046875 187.125 L 78.046875 192.675781 C 76.570312 191.671875 74.894531 190.84375 73.164062 189.980469 C 69.992188 188.382812 66.664062 186.730469 63.75 183.972656 C 60.65625 181.019531 58.15625 177.433594 56.464844 173.457031 C 55.476562 171.171875 54.769531 168.75 54.335938 166.25 Z M 59.160156 166.25 " fill-opacity="1" fill-rule="nonzero"/><path fill="#ff3131" d="M 68.949219 166.25 L 68.96875 166.289062 C 70.425781 169.695312 72.550781 172.726562 75.171875 175.230469 C 76.058594 176.074219 77.023438 176.804688 78.046875 177.472656 L 78.046875 183.007812 C 75.917969 181.84375 73.832031 180.507812 71.902344 178.675781 C 68.808594 175.722656 66.308594 172.136719 64.597656 168.160156 C 64.339844 167.527344 64.085938 166.898438 63.847656 166.25 Z M 68.949219 166.25 " fill-opacity="1" fill-rule="nonzero"/><path fill="#ffffff" d="M 57.367188 190.785156 C 56.679688 191.574219 56.011719 192.402344 55.398438 193.265625 L 51.71875 190.234375 C 52.40625 189.289062 53.136719 188.382812 53.921875 187.515625 C 55.476562 189.40625 57.367188 190.785156 57.367188 190.785156 Z M 57.367188 190.785156 " fill-opacity="1" fill-rule="nonzero"/><path fill="#ffffff" d="M 66.171875 195.847656 C 65.777344 195.648438 65.402344 195.472656 65.007812 195.277344 C 63.925781 194.726562 62.804688 194.171875 61.703125 193.5625 C 62.980469 194.113281 66.171875 195.847656 66.171875 195.847656 Z M 66.171875 195.847656 " fill-opacity="1" fill-rule="nonzero"/><path fill="#ffffff" d="M 59.671875 195.984375 C 60.304688 195.136719 60.972656 194.332031 61.703125 193.5625 C 62.980469 194.113281 66.171875 195.847656 66.171875 195.847656 C 65.304688 196.59375 64.535156 197.441406 63.847656 198.328125 C 63.789062 198.328125 63.75 198.328125 63.75 198.328125 Z M 59.671875 195.984375 " fill-opacity="1" fill-rule="nonzero"/><g fill="#000000" fill-opacity="1"><g transform="translate(157.871817, 197.999987)"><g><path d="M 10.96875 0.578125 C 9.320312 0.578125 7.867188 0.285156 6.609375 -0.296875 C 5.347656 -0.878906 4.367188 -1.800781 3.671875 -3.0625 C 2.972656 -4.320312 2.625 -5.984375 2.625 -8.046875 L 2.625 -19.21875 C 2.625 -20.03125 2.203125 -20.566406 1.359375 -20.828125 L 0.640625 -21.03125 L 0.640625 -21.34375 L 9.609375 -21.34375 L 9.609375 -21.03125 L 8.671875 -20.765625 C 7.867188 -20.566406 7.46875 -20.023438 7.46875 -19.140625 L 7.46875 -7.21875 C 7.46875 -5.207031 7.890625 -3.722656 8.734375 -2.765625 C 9.578125 -1.804688 10.785156 -1.328125 12.359375 -1.328125 C 13.992188 -1.328125 15.289062 -1.832031 16.25 -2.84375 C 17.207031 -3.851562 17.6875 -5.285156 17.6875 -7.140625 L 17.6875 -19.015625 C 17.6875 -19.453125 17.613281 -19.835938 17.46875 -20.171875 C 17.332031 -20.503906 17.050781 -20.722656 16.625 -20.828125 L 15.8125 -21.03125 L 15.8125 -21.34375 L 20.34375 -21.34375 L 20.34375 -21.03125 L 19.46875 -20.796875 C 19.0625 -20.710938 18.789062 -20.507812 18.65625 -20.1875 C 18.53125 -19.863281 18.46875 -19.484375 18.46875 -19.046875 L 18.46875 -7.21875 C 18.46875 -5.644531 18.15625 -4.269531 17.53125 -3.09375 C 16.90625 -1.914062 16.03125 -1.007812 14.90625 -0.375 C 13.789062 0.257812 12.476562 0.578125 10.96875 0.578125 Z M 10.96875 0.578125 "/></g></g></g><g fill="#000000" fill-opacity="1"><g transform="translate(179.509914, 197.999987)"><g><path d="M 0.71875 0 L 0.71875 -0.328125 L 1.390625 -0.578125 C 2.078125 -0.859375 2.421875 -1.410156 2.421875 -2.234375 L 2.421875 -19.109375 C 2.421875 -19.972656 2.078125 -20.523438 1.390625 -20.765625 L 0.71875 -21.03125 L 0.71875 -21.34375 L 9.25 -21.34375 C 11.53125 -21.34375 13.492188 -20.914062 15.140625 -20.0625 C 16.796875 -19.21875 18.070312 -18 18.96875 -16.40625 C 19.863281 -14.820312 20.3125 -12.921875 20.3125 -10.703125 C 20.3125 -8.441406 19.828125 -6.507812 18.859375 -4.90625 C 17.890625 -3.3125 16.535156 -2.09375 14.796875 -1.25 C 13.054688 -0.414062 11.015625 0 8.671875 0 Z M 7.28125 -0.640625 L 8.671875 -0.640625 C 10.222656 -0.640625 11.472656 -0.945312 12.421875 -1.5625 C 13.367188 -2.175781 14.0625 -3.210938 14.5 -4.671875 C 14.945312 -6.128906 15.171875 -8.128906 15.171875 -10.671875 C 15.171875 -13.210938 14.945312 -15.210938 14.5 -16.671875 C 14.0625 -18.128906 13.378906 -19.164062 12.453125 -19.78125 C 11.523438 -20.394531 10.304688 -20.703125 8.796875 -20.703125 L 7.28125 -20.703125 Z M 7.28125 -0.640625 "/></g></g></g><g fill="#000000" fill-opacity="1"><g transform="translate(201.115669, 197.999987)"><g><path d="M 4.859375 0.484375 C 4.078125 0.484375 3.414062 0.21875 2.875 -0.3125 C 2.332031 -0.851562 2.0625 -1.503906 2.0625 -2.265625 C 2.0625 -3.015625 2.332031 -3.671875 2.875 -4.234375 C 3.414062 -4.796875 4.078125 -5.078125 4.859375 -5.078125 C 5.628906 -5.078125 6.285156 -4.796875 6.828125 -4.234375 C 7.367188 -3.671875 7.640625 -3.015625 7.640625 -2.265625 C 7.640625 -1.503906 7.367188 -0.851562 6.828125 -0.3125 C 6.285156 0.21875 5.628906 0.484375 4.859375 0.484375 Z M 4.859375 0.484375 "/></g></g></g><g fill="#000000" fill-opacity="1"><g transform="translate(211.465817, 197.999987)"><g><path d="M 0.265625 0 L 0.265625 -0.328125 L 1.0625 -0.609375 C 1.5 -0.785156 1.832031 -1 2.0625 -1.25 C 2.300781 -1.5 2.5 -1.847656 2.65625 -2.296875 L 9.3125 -21.40625 L 12.0625 -21.40625 L 18.625 -2.171875 C 18.800781 -1.691406 18.992188 -1.328125 19.203125 -1.078125 C 19.421875 -0.835938 19.757812 -0.628906 20.21875 -0.453125 L 20.609375 -0.328125 L 20.609375 0 L 12.390625 0 L 12.390625 -0.328125 L 12.875 -0.484375 C 13.320312 -0.660156 13.59375 -0.90625 13.6875 -1.21875 C 13.789062 -1.53125 13.78125 -1.898438 13.65625 -2.328125 L 12.125 -6.984375 L 4.953125 -6.984375 L 3.390625 -2.421875 C 3.242188 -1.953125 3.195312 -1.578125 3.25 -1.296875 C 3.300781 -1.015625 3.554688 -0.785156 4.015625 -0.609375 L 4.71875 -0.328125 L 4.71875 0 Z M 5.171875 -7.640625 L 11.9375 -7.640625 L 8.671875 -17.6875 Z M 5.171875 -7.640625 "/></g></g></g><g fill="#000000" fill-opacity="1"><g transform="translate(233.136256, 197.999987)"><g><path d="M 10.96875 0.578125 C 9.320312 0.578125 7.867188 0.285156 6.609375 -0.296875 C 5.347656 -0.878906 4.367188 -1.800781 3.671875 -3.0625 C 2.972656 -4.320312 2.625 -5.984375 2.625 -8.046875 L 2.625 -19.21875 C 2.625 -20.03125 2.203125 -20.566406 1.359375 -20.828125 L 0.640625 -21.03125 L 0.640625 -21.34375 L 9.609375 -21.34375 L 9.609375 -21.03125 L 8.671875 -20.765625 C 7.867188 -20.566406 7.46875 -20.023438 7.46875 -19.140625 L 7.46875 -7.21875 C 7.46875 -5.207031 7.890625 -3.722656 8.734375 -2.765625 C 9.578125 -1.804688 10.785156 -1.328125 12.359375 -1.328125 C 13.992188 -1.328125 15.289062 -1.832031 16.25 -2.84375 C 17.207031 -3.851562 17.6875 -5.285156 17.6875 -7.140625 L 17.6875 -19.015625 C 17.6875 -19.453125 17.613281 -19.835938 17.46875 -20.171875 C 17.332031 -20.503906 17.050781 -20.722656 16.625 -20.828125 L 15.8125 -21.03125 L 15.8125 -21.34375 L 20.34375 -21.34375 L 20.34375 -21.03125 L 19.46875 -20.796875 C 19.0625 -20.710938 18.789062 -20.507812 18.65625 -20.1875 C 18.53125 -19.863281 18.46875 -19.484375 18.46875 -19.046875 L 18.46875 -7.21875 C 18.46875 -5.644531 18.15625 -4.269531 17.53125 -3.09375 C 16.90625 -1.914062 16.03125 -1.007812 14.90625 -0.375 C 13.789062 0.257812 12.476562 0.578125 10.96875 0.578125 Z M 10.96875 0.578125 "/></g></g></g><g fill="#000000" fill-opacity="1"><g transform="translate(254.774349, 197.999987)"><g><path d="M 0.71875 0 L 0.71875 -0.328125 L 1.390625 -0.578125 C 1.835938 -0.753906 2.117188 -0.960938 2.234375 -1.203125 C 2.359375 -1.453125 2.421875 -1.796875 2.421875 -2.234375 L 2.421875 -19.109375 C 2.421875 -19.546875 2.351562 -19.890625 2.21875 -20.140625 C 2.09375 -20.398438 1.816406 -20.609375 1.390625 -20.765625 L 0.71875 -21.03125 L 0.71875 -21.34375 L 8.953125 -21.34375 L 8.953125 -21.03125 L 8.375 -20.765625 C 7.96875 -20.609375 7.6875 -20.394531 7.53125 -20.125 C 7.382812 -19.863281 7.3125 -19.515625 7.3125 -19.078125 L 7.3125 -0.640625 L 12.296875 -0.640625 C 13.085938 -0.640625 13.671875 -0.832031 14.046875 -1.21875 C 14.429688 -1.613281 14.796875 -2.175781 15.140625 -2.90625 L 16.390625 -5.625 L 16.71875 -5.625 L 16.4375 0 Z M 0.71875 0 "/></g></g></g><g fill="#000000" fill-opacity="1"><g transform="translate(272.886991, 197.999987)"><g><path d="M 0.71875 0 L 0.71875 -0.328125 L 1.359375 -0.578125 C 1.785156 -0.734375 2.066406 -0.9375 2.203125 -1.1875 C 2.347656 -1.445312 2.421875 -1.796875 2.421875 -2.234375 L 2.421875 -19.109375 C 2.421875 -19.546875 2.351562 -19.890625 2.21875 -20.140625 C 2.09375 -20.398438 1.804688 -20.609375 1.359375 -20.765625 L 0.71875 -21.03125 L 0.71875 -21.34375 L 9.03125 -21.34375 L 9.03125 -21.03125 L 8.375 -20.765625 C 7.945312 -20.609375 7.660156 -20.398438 7.515625 -20.140625 C 7.378906 -19.890625 7.3125 -19.546875 7.3125 -19.109375 L 7.3125 -2.234375 C 7.3125 -1.796875 7.378906 -1.453125 7.515625 -1.203125 C 7.660156 -0.960938 7.945312 -0.753906 8.375 -0.578125 L 9.03125 -0.328125 L 9.03125 0 Z M 0.71875 0 "/></g></g></g><g fill="#000000" fill-opacity="1"><g transform="translate(283.269494, 197.999987)"><g><path d="M 0.265625 0 L 0.265625 -0.328125 L 1.0625 -0.609375 C 1.5 -0.785156 1.832031 -1 2.0625 -1.25 C 2.300781 -1.5 2.5 -1.847656 2.65625 -2.296875 L 9.3125 -21.40625 L 12.0625 -21.40625 L 18.625 -2.171875 C 18.800781 -1.691406 18.992188 -1.328125 19.203125 -1.078125 C 19.421875 -0.835938 19.757812 -0.628906 20.21875 -0.453125 L 20.609375 -0.328125 L 20.609375 0 L 12.390625 0 L 12.390625 -0.328125 L 12.875 -0.484375 C 13.320312 -0.660156 13.59375 -0.90625 13.6875 -1.21875 C 13.789062 -1.53125 13.78125 -1.898438 13.65625 -2.328125 L 12.125 -6.984375 L 4.953125 -6.984375 L 3.390625 -2.421875 C 3.242188 -1.953125 3.195312 -1.578125 3.25 -1.296875 C 3.300781 -1.015625 3.554688 -0.785156 4.015625 -0.609375 L 4.71875 -0.328125 L 4.71875 0 Z M 5.171875 -7.640625 L 11.9375 -7.640625 L 8.671875 -17.6875 Z M 5.171875 -7.640625 "/></g></g></g></svg>